/* XPM */
static char *_253a838d2774568826e8ec899dfd7d9KjXu4nUeOf2NHIGI[] = {
/* columns rows colors chars-per-pixel */
"26 97 72 1 ",
"  c None",
". c #7F0000",
"X c #B30000",
"o c #9B0000",
"O c #E30000",
"+ c #730000",
"@ c #A70000",
"# c #5B0000",
"$ c red",
"% c #8B0000",
"& c #BF0000",
"* c #EF0000",
"= c #CB0000",
"- c #D70000",
"; c #670000",
": c #AF4300",
"> c #430000",
", c #C34F00",
"< c #D75F0B",
"1 c #872300",
"2 c #7F1B1B",
"3 c #6B0F0F",
"4 c #932F00",
"5 c #F37317",
"6 c #9F3700",
"7 c #5F0707",
"8 c #4F0000",
"9 c #FF7F1B",
"0 c #EBDB57",
"q c #831F1F",
"w c #272727",
"e c #771717",
"r c #1B1B1B",
"t c #670B0B",
"y c #332B13",
"u c #2B230F",
"i c #3F2B1B",
"p c #5B0707",
"a c #372313",
"s c #C39B2F",
"d c #13230B",
"f c #731313",
"g c black",
"h c #2F2F2F",
"j c #B74700",
"k c #43331B",
"l c #EB6F0F",
"z c #FFD7BB",
"x c #373737",
"c c #CB5707",
"v c #D7BB43",
"b c #131313",
"n c #1F170B",
"m c #0B0B0B",
"M c #070707",
"N c #2F1B0B",
"B c #6B4727",
"V c #4B371B",
"C c #5F4323",
"Z c #774F2B",
"A c #432F1B",
"S c #170F07",
"D c #8F5F37",
"F c #B37347",
"G c #875733",
"H c #F7AB7B",
"J c #DF9363",
"K c #9B633B",
"L c #A36B3F",
"P c #CB7F4F",
"I c #533F1F",
"U c #D78B5B",
/* pixels */
"                          ",
"            .             ",
"                          ",
"              .           ",
"                          ",
"            .             ",
"                          ",
"            .             ",
"                          ",
"            . .           ",
"                          ",
"           . .            ",
"                          ",
"            . .           ",
"           . .X           ",
"           .X.X           ",
"           ....X          ",
"          ..XX..          ",
"          .oXO.X.         ",
"           ..XXO.         ",
"          +..XoX          ",
"           .oo@@          ",
"         .  ..oX.         ",
"          ..#$XO.         ",
"         ooX#.%X          ",
"        &o.XO.XX          ",
"        &&.*X%XX%         ",
"         =X-%&XXo;        ",
"         .&.&*&=o+        ",
"        %&*X*$-&o.        ",
"        .%XO$$OX&o;       ",
"         ..%X::XX@>       ",
"         %:%,<:123        ",
"        %4::<5<617#8      ",
"        %4,<909<:778>     ",
"      =-%4<5qwe5<1+88#    ",
"      =rt%qyuwi2:1r88#    ",
"      -r8pyw$$wy11r7+     ",
"     =-rayw*s0=wyar7.     ",
"     X=rrdyXs0Xydrr+++    ",
"     =rfgrhr.-rhrg3r%+    ",
"     =rj+grhkyhrg.jr@+    ",
"     &rjlzgxkwxgjzlr.     ",
"     Xrtcvgxyyxgjvcr%     ",
"      xrttrxywxrt%rx      ",
"       xrrrhuuhrrrx       ",
"         xrxxxxrx         ",
"           rxxr           ",
"           brbh           ",
"           nmbb           ",
"           Mbbn           ",
"           MNMM           ",
"           NNMM           ",
"           bMbb           ",
"           MNNM           ",
"           nabM           ",
"           aNMM           ",
"           NbNa           ",
"           Miab           ",
"           NaNM           ",
"           aanN           ",
"           NbNa           ",
"           MiaN           ",
"           NBNM           ",
"           aanM           ",
"           NMNa           ",
"           biaN           ",
"           aVNM           ",
"           aabn           ",
"           NnNa           ",
"           MaaN           ",
"           aCNM           ",
"           aabb           ",
"           NbNN           ",
"           MaaM           ",
"           NZNM           ",
"           aNMM           ",
"           NbNa           ",
"           Miab           ",
"           NaNM           ",
"           aanN           ",
"           NbNa           ",
"          ASCAnA          ",
"          ACDDCA          ",
"        BCaCBCAACB        ",
"      CFGBCFHHFAGFD       ",
"      CDZACFJJFAAZKA      ",
"     nKKZnCGKKGAnZLKn     ",
"   BCnSADNBLPPLBnDASnCB   ",
" CDGBAnNGASSAASnnGBnABGDC ",
" CDZAVISnADZnnZCnngVZAZDC ",
"nKFZAZGZCAnnnnnnACZGZAZKFn",
"nSNNLUULBnCGKKGCnBLUULDASn",
" nSASAASnnBLUULBnnSAASNNn ",
" ggAZnnZCnSSAASSnCZnnZASg ",
"    AZCAnADZnnZDAnACZAA   ",
"          nAZZAn          "
};
