/* XPM */
static char *e924079cefbc404ad8e353141c6a58cbuuQaOUDnxy3wBnye[] = {
/* columns rows colors chars-per-pixel */
"26 97 73 1 ",
"  c None",
". c #7F0000",
"X c #B30000",
"o c #9B0000",
"O c #D70000",
"+ c #BF0000",
"@ c #CB0000",
"# c #A70000",
"$ c #730000",
"% c #4F0000",
"& c red",
"* c #E30000",
"= c #670000",
"- c #5B0000",
"; c #FF1F1F",
": c #FF3F3F",
"> c #8B0000",
", c #430000",
"< c #C34F00",
"1 c #FF8F3B",
"2 c #EF0000",
"3 c #CB5707",
"4 c #D75F0B",
"5 c #EBDB57",
"6 c #B74700",
"7 c #831F1F",
"8 c #272727",
"9 c #771717",
"0 c #1B1B1B",
"q c #332B13",
"w c #2B230F",
"e c #7F1B1B",
"r c #731313",
"t c #2F1B0B",
"y c #C39B2F",
"u c #372313",
"i c #13230B",
"p c #D7BB43",
"a c #6B0F0F",
"s c black",
"d c #2F2F2F",
"f c #43331B",
"g c #EB6F0F",
"h c #FF7F1B",
"j c #373737",
"k c #670B0B",
"l c #131313",
"z c #1F170B",
"x c #0B0B0B",
"c c #070707",
"v c #3F2B1B",
"b c #473323",
"n c #533F1F",
"m c #675333",
"M c #4F3B2B",
"N c #5B472B",
"B c #774F2B",
"V c #432F1B",
"C c #170F07",
"Z c #5F4323",
"A c #8F5F37",
"S c #6B4727",
"D c #B37347",
"F c #F7AB7B",
"G c #CB7F4F",
"H c #EFA373",
"J c #9B633B",
"K c #875733",
"L c #A36B3F",
"P c #7F532F",
"I c #4B371B",
"U c #AB6F43",
"Y c #DF9363",
/* pixels */
"                          ",
"                          ",
"                          ",
"                          ",
"                          ",
"                          ",
"              .           ",
"                          ",
"               .          ",
"                          ",
"                          ",
"             .            ",
"               .          ",
"                          ",
"             . .          ",
"             .            ",
"               X          ",
"              X.          ",
"              X           ",
"             o.           ",
"             X.           ",
"             Xo.          ",
"             .X.          ",
"           Oo.+oX         ",
"          @@o.@oo.        ",
"         #@+.X+o$%        ",
"         X@o#&*+=%        ",
"          +oX@+*%         ",
"        Xooo.Oo+#.        ",
"        +X.-X;@o#..       ",
"        .$-X*:;+o.%       ",
"       .X+>@*;@X.%,       ",
"      +.X+##<<+o=,        ",
"      +..XO<11<o===       ",
"      +oX2345546o+>$      ",
"      oo*3678896+@>$      ",
"      >0o#7qw8qeX.0       ",
"      >0.7q82&8q9r0+      ",
"     +X0tq8Xyy@8qu0o@     ",
"     @X00iq2py2qi00o>     ",
"     @0as0d0*20d0sr0.     ",
"     @06$s0dfqd0s.60$     ",
"     +06ghsjf8js6hg0$     ",
"     X0k3psjqqjs6p30      ",
"      j0kk0jq8j0k>0j      ",
"       j000dwwd000j       ",
"         j0jjjj0j         ",
"           0jj0           ",
"           l0ld           ",
"           zxll           ",
"           cllz           ",
"           xtxc           ",
"           ttxx           ",
"           lxll           ",
"           cttc           ",
"           zvlc           ",
"           vuxx           ",
"           tluv           ",
"           xbvl           ",
"           tntc           ",
"           vvzt           ",
"           tltv           ",
"           xnbt           ",
"           tmvc           ",
"           vvzx           ",
"           txtv           ",
"           lbbt           ",
"           vMtc           ",
"           vvlz           ",
"           uztv           ",
"           xvvu           ",
"           vNtc           ",
"           vvll           ",
"           tltt           ",
"           xvvx           ",
"           tBtc           ",
"           vuxx           ",
"           tluv           ",
"           xbvl           ",
"           tbtc           ",
"           vvzt           ",
"           tltv           ",
"          VCZVzV          ",
"          VZAAZV          ",
"        SZuZSZVVZS        ",
"      ZDASZDFFDVADA       ",
"      ZABVZGHHGVVBJV      ",
"     zJJBzZKJJKVzBLJz     ",
"   SZzCVAtSLGGLSzAVCzZS   ",
" ZPBSVztKVCCVVCzzKSzVSPAZ ",
" ZABVInCzVABzzBZzzsIBVBAZ ",
"zUJBVBKBZVzzzzzzVZBKBVBJUz",
"zCtnLYGLSzZKJJKZzSLGYLAnCz",
" zCVCVVCzzSLGGLSzzCVVCttz ",
" ssVBzzBZzCCVVCCzZBzzBVCs ",
"    VBZVzVABzzBAVzVZBVV   ",
"          zVBBVz          "
};
