/* XPM */
static char *d3ba3e63853544f48d9636e6441416974R0bgr88Ic3Oae8J[] = {
/* columns rows colors chars-per-pixel */
"26 97 73 1 ",
"  c None",
". c #7F0000",
"X c #8B0000",
"o c #A70000",
"O c #9B0000",
"+ c #CB0000",
"@ c #B30000",
"# c #D70000",
"$ c #E30000",
"% c red",
"& c #BF0000",
"* c #EF0000",
"= c #FF3F3F",
"- c #AF4300",
"; c #FF1F1F",
": c #C34F00",
"> c #430000",
", c #CB5707",
"< c #D75F0B",
"1 c #F37317",
"2 c #4F0000",
"3 c #5B0000",
"4 c #FF8F3B",
"5 c #EBDB57",
"6 c #730000",
"7 c #831F1F",
"8 c #332B13",
"9 c #272727",
"0 c #1B1B1B",
"q c #2B230F",
"w c #7F1B1B",
"e c #731313",
"r c #771717",
"t c #3F2B1B",
"y c #C39B2F",
"u c #372313",
"i c #13230B",
"p c black",
"a c #2F2F2F",
"s c #B74700",
"d c #43331B",
"f c #EB6F0F",
"g c #FF7F1B",
"h c #373737",
"j c #670B0B",
"k c #D7BB43",
"l c #131313",
"z c #1F170B",
"x c #0B0B0B",
"c c #070707",
"v c #2F1B0B",
"b c #4F3B2B",
"n c #473323",
"m c #6B4727",
"M c #5F4323",
"N c #574333",
"B c #6F5743",
"V c #5F4B37",
"C c #774F2B",
"Z c #432F1B",
"A c #170F07",
"S c #8F5F37",
"D c #AB6F43",
"F c #A36B3F",
"G c #875733",
"H c #F7AB7B",
"J c #BF7B4B",
"K c #DF9363",
"L c #9B633B",
"P c #CB7F4F",
"I c #4B371B",
"U c #533F1F",
"Y c #E79B6B",
/* pixels */
"                          ",
"                          ",
"                          ",
"                          ",
"                          ",
"                          ",
"               .          ",
"                          ",
"                          ",
"                          ",
"              .           ",
"                          ",
"                          ",
"                .         ",
"              . .         ",
"                          ",
"              X           ",
"             X.           ",
"             .   .        ",
"             o X O        ",
"            +.O. .        ",
"           OO@@o          ",
"          @#oO$.          ",
"         +#%$O..          ",
"         @O@OO@@.         ",
"        $#oO&o@$.         ",
"        #$*O*&o@          ",
"         OOo*%##..        ",
"        @#&O@+&=%@.       ",
"        O$%&O-&;$@.       ",
"        O+#$-:-$@.>       ",
"        oo*,<1<+#O23      ",
"       o+$+<141,##23      ",
"      o+o*<14541+#6       ",
"      o#o*145554<*O       ",
"      oo*%4789741+O&      ",
"      &0%+78q98w<,0&#     ",
"      @0er89*+98r,0#&+    ",
"      @0t89@y5@98u0&X$    ",
"      600i8oy5@8i0063@    ",
"      0ep0a0X+0a0pe0@O    ",
"     +0s6p0ad8a0p.s0OO    ",
"     &0sfgphd9hpsgf0.     ",
"     @0j,kph88hpsk,0.     ",
"      h0jj0h89h0jX0h      ",
"       h000aqqa000h       ",
"         h0hhhh0h         ",
"           0hh0           ",
"           l0la           ",
"           zxll           ",
"           cllz           ",
"           xvxc           ",
"           vvxx           ",
"           lxll           ",
"           cvvc           ",
"           ztlc           ",
"           tuxx           ",
"           vlut           ",
"           xbnl           ",
"           vmvc           ",
"           ttzv           ",
"           vlvt           ",
"           xMNv           ",
"           vBnc           ",
"           ttzx           ",
"           vxvt           ",
"           lbNv           ",
"           tNvc           ",
"           ntlz           ",
"           uzvt           ",
"           xnnu           ",
"           tVvc           ",
"           ttll           ",
"           vlvv           ",
"           xnnx           ",
"           vCvc           ",
"           tuxx           ",
"           vlut           ",
"           xbnl           ",
"           vNvc           ",
"           ttzv           ",
"           vlvt           ",
"          ZAMZzZ          ",
"          ZMSSMZ          ",
"        mMuMmMZZMm        ",
"      MDFGMDHHJZGFS       ",
"      MJCZMJKKJZZCJZ      ",
"     zLLCzMGLLGZzCFLz     ",
"   mMzAZSvmFPPFmzSZAzMm   ",
" MSGmZzvGZAAZZAzzGmzZmGSM ",
" MSCZIUAzZSCzzCMzzpICZCSM ",
"zLDCZCGCMZzzzzzzZMCGCZCLLz",
"zAvvFYYFmzMGLLGMzmFPYFSZAz",
" zAZAZZAzzmFYYFmzzAZZAvvz ",
" ppZCzzCMzAAZZAAzMCzzCZAp ",
"    ZCMZzZSCzzCSZzZMCZZ   ",
"          zZCCZz          "
};
