/* XPM */
static char *_264fc2d4a6e4b2baad97d5960313288wEIAusK3dz8WsOkJ[] = {
/* columns rows colors chars-per-pixel */
"97 97 65 1 ",
"  c None",
". c #B30000",
"X c #7F0000",
"o c #670000",
"O c #BF0000",
"+ c #E30000",
"@ c #CB0000",
"# c #A70000",
"$ c #8B0000",
"% c #9B0000",
"& c #730000",
"* c #EF0000",
"= c red",
"- c #D70000",
"; c #CB5707",
": c #AF4300",
"> c #D75F0B",
", c #F37317",
"< c black",
"1 c #272727",
"2 c #771717",
"3 c #1B1B1B",
"4 c #831F1F",
"5 c #332B13",
"6 c #2B230F",
"7 c #7F1B1B",
"8 c #2F1B0B",
"9 c #C39B2F",
"0 c #EBDB57",
"q c #372313",
"w c #13230B",
"e c #6B0F0F",
"r c #2F2F2F",
"t c #731313",
"y c #B74700",
"u c #43331B",
"i c #EB6F0F",
"p c #FF7F1B",
"a c #373737",
"s c #670B0B",
"d c #D7BB43",
"f c #131313",
"g c #1F170B",
"h c #0B0B0B",
"j c #070707",
"k c #3F2B1B",
"l c #473323",
"z c #533F1F",
"x c #675333",
"c c #4F3B2B",
"v c #5B472B",
"b c #774F2B",
"n c #432F1B",
"m c #170F07",
"M c #5F4323",
"N c #8F5F37",
"B c #6B4727",
"V c #B37347",
"C c #875733",
"Z c #FFBF9B",
"A c #DF9363",
"S c #9B633B",
"D c #A36B3F",
"F c #CB7F4F",
"G c #4B371B",
/* pixels */
"                                                 .                                               ",
"                                                    X                                            ",
"                                                                                                 ",
"                                                 X                                               ",
"                                                                                                 ",
"                                                 o                                               ",
"                                                                                                 ",
"                                                                                                 ",
"                                                                                                 ",
"                                               O  +                                              ",
"                                                  X .                                            ",
"                                                    .                                            ",
"                                                 X                                               ",
"                                                                                                 ",
"                                                    X                                            ",
"                                                 X                                               ",
"                                                 . .                                             ",
"                                                   +                                             ",
"                                                  X+X                                            ",
"                                                 X...X                                           ",
"                                                 X..+X                                           ",
"                                                  XXXX                                           ",
"                                                 XXX@+X                                          ",
"                                                  X#.+o                                          ",
"                                                 XXXX$oX                                         ",
"                                                XX.%Xo+X                                         ",
"                                               XXX.%$o.                                          ",
"                                               X..XX%oXX                                         ",
"                                              %%.+X$$.@@X                                        ",
"                                              .%%%.$&#++X                                        ",
"                                             OO%X@*.&%##                                         ",
"                                             %+..=*+%$@-%                                        ",
"                                             O@-@;:.%%@O%                                        ",
"                                            @-+#:>>:%%#.                                         ",
"                                            @**$>,,>%%.<                                         ",
"                                           @@+O:112:@*..                                         ",
"                                          @3$#456157.@3.%                                        ",
"                                          @3+451.O152#3Oo                                        ",
"                                         @O3851%90@15q3O&&                                       ",
"                                         -@33w5O90@5w33.X$                                       ",
"                                         +3e<3r3&@3r3<t3$#                                       ",
"                                         @3y&<3ru5r3<Xy3%#                                       ",
"                                         O3yip<au1a<ypy3%                                        ",
"                                         .3s;d<a55a<yd;3%                                        ",
"                                          a3ss3a51a3s$3a                                         ",
"                                           a333r66r333a                                          ",
"                                             a3aaaa3a                                            ",
"                                               3aa3                                              ",
"                                               f3fr                                              ",
"                                               ghff                                              ",
"                                               jffg                                              ",
"                                               h8hj                                              ",
"                                               88hh                                              ",
"                                               fhff                                              ",
"                                               j88j                                              ",
"                                               gkfj                                              ",
"                                               kqhh                                              ",
"                                               8fqk                                              ",
"                                               hlkf                                              ",
"                                               8z8j                                              ",
"                                               kkg8                                              ",
"                                               8f8k                                              ",
"                                               hzk8                                              ",
"                                               8x8j                                              ",
"                                               kkgh                                              ",
"                                               8h8k                                              ",
"                                               flu8                                              ",
"                                               kc8j                                              ",
"                                               kkfg                                              ",
"                                               qg8k                                              ",
"                                               hkkq                                              ",
"                                               kv8j                                              ",
"                                               kkff                                              ",
"                                               8f88                                              ",
"                                               hkkh                                              ",
"                                               8b8j                                              ",
"                                               kqhh                                              ",
"                                               8fqk                                              ",
"                                               hlkf                                              ",
"                                               8k8j                                              ",
"                                               kkg8                                              ",
"                                               8f8k                                              ",
"                                              nmMngn                                             ",
"                                              nMNNMn                                             ",
"                                            BMqMBMnnMB                                           ",
"                                          MVCBMVZZVnCVN                                          ",
"                                          MNbnMVAAVnnbSn                                         ",
"                                         gSSbgMCSSCngbDSg                                        ",
"                                       BMgmnN8BDFFDBgNnmgMB                                      ",
"                                     MNCBng8CnmmnnmggCBgnBCNM                                    ",
"                                     MNbnGzmgnNbggbMgg<GbnbNM                                    ",
"                                    gSSbnbCbMnggggggnMbCbnbSSg                                   ",
"                                    gm88DFFDBgMCSSCMgBDFFDNnmg                                   ",
"                                     gmnmnnmggBDFFDBggmnnm88g                                    ",
"                                     <<nbggbMgmmnnmmgMbggbnm<                                    ",
"                                        nbMngnNbggbNngnMbnn                                      ",
"                                              gnbbng                                             "
};
