/* XPM */
static char *_43b17d786874497983709b9229b2372AjIdIUtJdLAy9hRt[] = {
/* columns rows colors chars-per-pixel */
"64 64 10 1 ",
"  c None",
". c gray66",
"X c #989898",
"o c #000058",
"O c #484848",
"+ c #7C7C7C",
"@ c gray55",
"# c #646464",
"$ c #00004C",
"% c gray33",
/* pixels */
"                                                                ",
"                                                                ",
"                                                                ",
"                                                                ",
"                                                                ",
"                                                                ",
"                                                                ",
"                                                                ",
"                                                                ",
"                                                                ",
"                                                                ",
"                                                                ",
"                                                                ",
"                                                                ",
"                                                                ",
"                   .........................                    ",
"                   XoooooooooooooooooooooooX                    ",
"                   OXO+@@@@@@@@@@@@@@@@@+OXO                    ",
"                    #+o@O$$$$$$$$$$$$$O@o+#                     ",
"                    OXO+#$$$$$$$$$$$$$#+OXO                     ",
"                     #+o+O$$$$$$$$$$$O+o+#                      ",
"             .XO     OXO@#$$$$$$$$$$$#@OXO     OX.              ",
"             .oX#O    #+o+O$$$$$$$$$O+o+#    O#Xo.              ",
"             .oo+X#O  OXO@#$$$$$$$$$#@OXO  O#X+Oo.              ",
"             .o+oO+X#O #+%+$$$$$$$$$+%+# O#X+Oo+o.              ",
"             .o@@+oO+X# Xo@O$$$$$$$O@oX #X+Oo+@@o.              ",
"             .o@O#@+oO+XXO##$$$$$$$##OXX+Oo+@#O@o.              ",
"             .o@$$O#@+%oO+o@$$$$$$$@o+Oo%+@#O$$@o.              ",
"             .o@$$$$O#+@#oo@$$$$$$$@oo#@+#O$$$$@o.              ",
"             .o@$$$$$$$O#+@@$$$$$$$@@+#O$$$$$$$@o.              ",
"             .o@$$$$$$$$$$$$$$$$$$$$$$$$$$$$$$$@o.              ",
"             .o@$$$$$$$$$$$$$$$$$$$$$$$$$$$$$$$@o.              ",
"             .o@$$$$$$$$$$$$$$$$$$$$$$$$$$$$$$$@o.              ",
"             .o@$$$$$$$$$$$$$$$$$$$$$$$$$$$$$$$@o.              ",
"             .o@$$$$$$$$$$$$$$$$$$$$$$$$$$$$$$$@o.              ",
"             .o@$$$$$$$$$$$$$$$$$$$$$$$$$$$$$$$@o.              ",
"             .o@$$$$$$$$$$$$$$$$$$$$$$$$$$$$$$$@o.              ",
"             .o@$$$$$$$O#+@@$$$$$$$@@+#O$$$$$$$@o.              ",
"             .o@$$$$O#+@#oo@$$$$$$$@oo#@+#O$$$$@o.              ",
"             .o@$$O#+@%oO+o+$$$$$$$+o+Oo%@+#O$$@o.              ",
"             .o@O#+@oO+XXO##$$$$$$$##OXX+Oo@+#O@o.              ",
"             .o@@+oO+X# Xo@O$$$$$$$O@oX #X+Oo+@@o.              ",
"             .o+oO+X#  #+%+$$$$$$$$$+%+#  #X+Oo+o.              ",
"             .oo+X#    XO@#$$$$$$$$$#@OX    #X+Oo.              ",
"             .oX#     #+o+O$$$$$$$$$O+o+#     #Xo.              ",
"             .X       XO@#$$$$$$$$$$$#@OX       X.              ",
"                     #+o+O$$$$$$$$$$$O@o+#                      ",
"                     XO+#$$$$$$$$$$$$$#+OX                      ",
"                    #+o@O$$$$$$$$$$$$$O@o+#                     ",
"                    XO+@@@@@@@@@@@@@@@@@+OX                     ",
"                   XoooooooooooooooooooooooX                    ",
"                   .........................                    ",
"                                                                ",
"                                                                ",
"                                                                ",
"                                                                ",
"                                                                ",
"                                                                ",
"                                                                ",
"                                                                ",
"                                                                ",
"                                                                ",
"                                                                ",
"                                                                "
};
